<svg width="680" height="500" viewBox="0 0 680 500" xmlns="http://www.w3.org/2000/svg" role="img">
<title>Insurance Claims Processing Agent — Portfolio Project Card</title>
<desc>Autonomous FNOL document processing agent: AI-powered field extraction using Google Gemini 2.5 Flash with 5-tier intelligent claim routing.</desc>

<!-- Background -->
<rect width="680" height="500" fill="#081420"/>

<!-- Subtle background dots -->
<g opacity=".22" fill="#1c3e5c">
<circle cx="54" cy="54" r="2.5"/><circle cx="626" cy="54" r="2.5"/>
<circle cx="54" cy="446" r="2.5"/><circle cx="626" cy="446" r="2.5"/>
<circle cx="172" cy="46" r="2"/><circle cx="508" cy="46" r="2"/>
<circle cx="44" cy="186" r="2"/><circle cx="636" cy="186" r="2"/>
<circle cx="44" cy="290" r="2"/><circle cx="636" cy="290" r="2"/>
<circle cx="200" cy="388" r="2"/><circle cx="480" cy="388" r="2"/>
<circle cx="100" cy="108" r="1.5"/><circle cx="580" cy="108" r="1.5"/>
<circle cx="100" cy="328" r="1.5"/><circle cx="580" cy="328" r="1.5"/>
<circle cx="148" cy="58" r="1.5"/><circle cx="532" cy="58" r="1.5"/>
</g>

<!-- Corner brackets -->
<path d="M44,66 L44,44 L66,44" fill="none" stroke="#ffffff" stroke-width="1.8" opacity=".42" stroke-linecap="round"/>
<path d="M614,44 L636,44 L636,66" fill="none" stroke="#ffffff" stroke-width="1.8" opacity=".42" stroke-linecap="round"/>
<path d="M44,462 L44,482 L66,482" fill="none" stroke="#ffffff" stroke-width="1.8" opacity=".42" stroke-linecap="round"/>
<path d="M614,482 L636,482 L636,462" fill="none" stroke="#ffffff" stroke-width="1.8" opacity=".42" stroke-linecap="round"/>

<!-- Routing lines (drawn first, behind everything) -->
<path d="M267,238 C204,232 166,196 142,154" fill="none" stroke="#22c55e" stroke-width="1.3" opacity=".6" stroke-dasharray="4,3"/>
<path d="M413,238 C476,232 514,196 538,154" fill="none" stroke="#ef4444" stroke-width="1.3" opacity=".6" stroke-dasharray="4,3"/>
<path d="M267,286 C204,286 166,278 142,268" fill="none" stroke="#f59e0b" stroke-width="1.3" opacity=".6" stroke-dasharray="4,3"/>
<path d="M413,286 C476,286 514,278 538,268" fill="none" stroke="#3b82f6" stroke-width="1.3" opacity=".6" stroke-dasharray="4,3"/>

<!-- FNOL Document body -->
<rect x="267" y="78" width="146" height="188" rx="8" fill="#132840"/>
<rect x="267" y="78" width="146" height="188" rx="8" fill="none" stroke="#1c4266" stroke-width=".9"/>

<!-- Clipboard top -->
<rect x="303" y="70" width="74" height="20" rx="5" fill="#0b1e30"/>
<rect x="303" y="70" width="74" height="20" rx="5" fill="none" stroke="#1c4266" stroke-width=".7"/>
<rect x="322" y="65" width="36" height="11" rx="2.5" fill="#081420"/>

<!-- Document label -->
<text x="340" y="100" font-family="Arial,sans-serif" font-size="8" font-weight="700" fill="#4dd8ff" letter-spacing="1.4" text-anchor="middle">FNOL DOCUMENT</text>

<!-- Field lines (teal = extracted, grey = pending) -->
<rect x="282" y="111" width="112" height="5.5" rx="2" fill="#1c4a70"/><rect x="282" y="111" width="112" height="5.5" rx="2" fill="#00c8b4" opacity=".48"/>
<rect x="282" y="126" width="82" height="5.5" rx="2" fill="#1c4a70"/><rect x="282" y="126" width="82" height="5.5" rx="2" fill="#00c8b4" opacity=".42"/>
<rect x="282" y="141" width="112" height="5.5" rx="2" fill="#1c4a70"/><rect x="282" y="141" width="68" height="5.5" rx="2" fill="#00c8b4" opacity=".36"/>
<rect x="282" y="156" width="64" height="5.5" rx="2" fill="#1c4a70"/>
<rect x="282" y="171" width="112" height="5.5" rx="2" fill="#1c4a70"/><rect x="282" y="171" width="112" height="5.5" rx="2" fill="#00c8b4" opacity=".38"/>
<rect x="282" y="186" width="88" height="5.5" rx="2" fill="#1c4a70"/>
<rect x="282" y="201" width="112" height="5.5" rx="2" fill="#1c4a70"/><rect x="282" y="201" width="46" height="5.5" rx="2" fill="#00c8b4" opacity=".44"/>

<text x="340" y="224" font-family="Arial,sans-serif" font-size="7" fill="#2e6a8a" letter-spacing=".5" text-anchor="middle">27 FIELDS EXTRACTED · 5-TIER ROUTING ENGINE</text>

<!-- Teal insurance shield (overlays bottom of document) -->
<path d="M267,207 L413,207 L413,274 Q413,338 340,360 Q267,338 267,274 Z" fill="#006e60"/>
<path d="M267,207 L413,207 L413,244 Q340,234 267,244 Z" fill="#00a896" opacity=".35"/>
<path d="M267,207 L413,207 L413,274 Q413,338 340,360 Q267,338 267,274 Z" fill="none" stroke="#00c8b4" stroke-width=".9" opacity=".55"/>

<!-- Shield checkmark -->
<path d="M318,272 L333,288 L364,254" fill="none" stroke="#ffffff" stroke-width="3" stroke-linecap="round" stroke-linejoin="round" opacity=".95"/>
<text x="340" y="320" font-family="Arial,sans-serif" font-size="7.5" font-weight="700" fill="#ffffff" letter-spacing="1.5" text-anchor="middle" opacity=".65">VERIFIED</text>

<!-- AI sparkle (Gemini star) above document -->
<path d="M340,36 L344.5,51 L359,55 L344.5,59 L340,74 L335.5,59 L321,55 L335.5,51 Z" fill="#4dd8ff"/>
<path d="M367,49 L369.2,57 L377,59 L369.2,61 L367,69 L364.8,61 L357,59 L364.8,57 Z" fill="#4dd8ff" opacity=".52"/>
<path d="M313,46 L315,53.5 L322.5,55 L315,56.5 L313,64 L311,56.5 L303.5,55 L311,53.5 Z" fill="#4dd8ff" opacity=".34"/>
<circle cx="352" cy="36" r="1.8" fill="#4dd8ff" opacity=".5"/>
<circle cx="327" cy="35" r="1.4" fill="#4dd8ff" opacity=".4"/>

<!-- Route circle: Fast-track (green) -->
<circle cx="110" cy="152" r="32" fill="#0b2616"/>
<circle cx="110" cy="152" r="32" fill="none" stroke="#22c55e" stroke-width="1.8"/>
<path d="M94,152 L106,164 L128,138" fill="none" stroke="#22c55e" stroke-width="2.5" stroke-linecap="round" stroke-linejoin="round"/>
<text x="110" y="198" font-family="Arial,sans-serif" font-size="10" font-weight="500" fill="#7a9ab8" text-anchor="middle">Fast-track</text>

<!-- Route circle: Fraud flag (red) -->
<circle cx="570" cy="152" r="32" fill="#27090a"/>
<circle cx="570" cy="152" r="32" fill="none" stroke="#ef4444" stroke-width="1.8"/>
<line x1="570" y1="133" x2="570" y2="160" stroke="#ef4444" stroke-width="3" stroke-linecap="round"/>
<circle cx="570" cy="170" r="3.2" fill="#ef4444"/>
<text x="570" y="198" font-family="Arial,sans-serif" font-size="10" font-weight="500" fill="#7a9ab8" text-anchor="middle">Fraud flag</text>

<!-- Route circle: Manual review (amber) -->
<circle cx="110" cy="268" r="32" fill="#281a04"/>
<circle cx="110" cy="268" r="32" fill="none" stroke="#f59e0b" stroke-width="1.8"/>
<path d="M89,268 Q110,250 131,268 Q110,286 89,268 Z" fill="none" stroke="#f59e0b" stroke-width="2" stroke-linecap="round" stroke-linejoin="round"/>
<circle cx="110" cy="268" r="6.5" fill="none" stroke="#f59e0b" stroke-width="2"/>
<circle cx="110" cy="268" r="2.5" fill="#f59e0b"/>
<text x="110" y="314" font-family="Arial,sans-serif" font-size="10" font-weight="500" fill="#7a9ab8" text-anchor="middle">Manual review</text>

<!-- Route circle: Specialist queue (blue) -->
<circle cx="570" cy="268" r="32" fill="#0b1830"/>
<circle cx="570" cy="268" r="32" fill="none" stroke="#3b82f6" stroke-width="1.8"/>
<circle cx="570" cy="255" r="8" fill="none" stroke="#3b82f6" stroke-width="2"/>
<path d="M553,282 Q553,272 570,272 Q587,272 587,282" fill="none" stroke="#3b82f6" stroke-width="2" stroke-linecap="round"/>
<text x="570" y="314" font-family="Arial,sans-serif" font-size="10" font-weight="500" fill="#7a9ab8" text-anchor="middle">Specialist queue</text>

<!-- Separator + dark bottom panel -->
<rect x="0" y="361" width="680" height="1" fill="#163248" opacity=".9"/>
<rect x="0" y="362" width="680" height="138" fill="#050e18"/>

<!-- Gemini badge pill -->
<rect x="244" y="374" width="192" height="20" rx="10" fill="#0b1e2e"/>
<text x="340" y="388" font-family="Arial,sans-serif" font-size="9.5" font-weight="600" fill="#00c8b4" letter-spacing="1.3" text-anchor="middle">GOOGLE GEMINI 2.5 FLASH</text>

<!-- Project title -->
<text x="340" y="428" font-family="Arial,sans-serif" font-size="18" font-weight="700" fill="#ffffff" letter-spacing="2.5" text-anchor="middle">INSURANCE CLAIMS</text>
<text x="340" y="456" font-family="Arial,sans-serif" font-size="18" font-weight="700" fill="#ffffff" letter-spacing="2.5" text-anchor="middle">PROCESSING AGENT</text>

<!-- GitHub link -->
<text x="340" y="480" font-family="Arial,sans-serif" font-size="8.5" fill="#2e5a7a" letter-spacing=".8" text-anchor="middle">github.com/Rakshithonnavar/insurance-claims-agent</text>
</svg>
